<?xml version="1.0" encoding="utf-8" standalone="no"?>
<!DOCTYPE svg PUBLIC "-//W3C//DTD SVG 1.1//EN"
  "http://www.w3.org/Graphics/SVG/1.1/DTD/svg11.dtd">
<svg xmlns:xlink="http://www.w3.org/1999/xlink" width="350.966638pt" height="356.029207pt" viewBox="0 0 350.966638 356.029207" xmlns="http://www.w3.org/2000/svg" version="1.1">
 <metadata>
  <rdf:RDF xmlns:dc="http://purl.org/dc/elements/1.1/" xmlns:cc="http://creativecommons.org/ns#" xmlns:rdf="http://www.w3.org/1999/02/22-rdf-syntax-ns#">
   <cc:Work>
    <dc:type rdf:resource="http://purl.org/dc/dcmitype/StillImage"/>
    <dc:date>2026-05-05T18:59:52.226971</dc:date>
    <dc:format>image/svg+xml</dc:format>
    <dc:creator>
     <cc:Agent>
      <dc:title>Matplotlib v3.10.9, https://matplotlib.org/</dc:title>
     </cc:Agent>
    </dc:creator>
   </cc:Work>
  </rdf:RDF>
 </metadata>
 <defs>
  <style type="text/css">*{stroke-linejoin: round; stroke-linecap: butt}</style>
 </defs>
 <g id="figure_1">
  <g id="patch_1">
   <path d="M 0 356.029207 
L 350.966638 356.029207 
L 350.966638 0 
L 0 0 
z
" style="fill: #ffffff"/>
  </g>
  <g id="axes_1">
   <g id="patch_2">
    <path d="M 40.603125 281.542779 
L 336.787397 281.542779 
L 336.787397 50.64 
L 40.603125 50.64 
z
" style="fill: #ffffff"/>
   </g>
   <g id="patch_3">
    <path d="M 52.944136 281.542779 
L 77.626159 281.542779 
L 77.626159 161.769414 
L 52.944136 161.769414 
z
" clip-path="url(#p0b1e2a64d9)" style="fill: #5b9bd5"/>
   </g>
   <g id="patch_4">
    <path d="M 102.308182 281.542779 
L 126.990204 281.542779 
L 126.990204 161.653499 
L 102.308182 161.653499 
z
" clip-path="url(#p0b1e2a64d9)" style="fill: #5b9bd5"/>
   </g>
   <g id="patch_5">
    <path d="M 151.672227 281.542779 
L 176.35425 281.542779 
L 176.35425 161.600509 
L 151.672227 161.600509 
z
" clip-path="url(#p0b1e2a64d9)" style="fill: #5b9bd5"/>
   </g>
   <g id="patch_6">
    <path d="M 201.036273 281.542779 
L 225.718295 281.542779 
L 225.718295 161.709801 
L 201.036273 161.709801 
z
" clip-path="url(#p0b1e2a64d9)" style="fill: #5b9bd5"/>
   </g>
   <g id="patch_7">
    <path d="M 250.400318 281.542779 
L 275.082341 281.542779 
L 275.082341 161.600509 
L 250.400318 161.600509 
z
" clip-path="url(#p0b1e2a64d9)" style="fill: #5b9bd5"/>
   </g>
   <g id="patch_8">
    <path d="M 299.764363 281.542779 
L 324.446386 281.542779 
L 324.446386 161.693241 
L 299.764363 161.693241 
z
" clip-path="url(#p0b1e2a64d9)" style="fill: #5b9bd5"/>
   </g>
   <g id="patch_9">
    <path d="M 52.944136 161.769414 
L 77.626159 161.769414 
L 77.626159 129.647698 
L 52.944136 129.647698 
z
" clip-path="url(#p0b1e2a64d9)" style="fill: #ed7d31"/>
   </g>
   <g id="patch_10">
    <path d="M 102.308182 161.653499 
L 126.990204 161.653499 
L 126.990204 138.046571 
L 102.308182 138.046571 
z
" clip-path="url(#p0b1e2a64d9)" style="fill: #ed7d31"/>
   </g>
   <g id="patch_11">
    <path d="M 151.672227 161.600509 
L 176.35425 161.600509 
L 176.35425 124.759395 
L 151.672227 124.759395 
z
" clip-path="url(#p0b1e2a64d9)" style="fill: #ed7d31"/>
   </g>
   <g id="patch_12">
    <path d="M 201.036273 161.709801 
L 225.718295 161.709801 
L 225.718295 144.054283 
L 201.036273 144.054283 
z
" clip-path="url(#p0b1e2a64d9)" style="fill: #ed7d31"/>
   </g>
   <g id="patch_13">
    <path d="M 250.400318 161.600509 
L 275.082341 161.600509 
L 275.082341 136.374083 
L 250.400318 136.374083 
z
" clip-path="url(#p0b1e2a64d9)" style="fill: #ed7d31"/>
   </g>
   <g id="patch_14">
    <path d="M 299.764363 161.693241 
L 324.446386 161.693241 
L 324.446386 138.073066 
L 299.764363 138.073066 
z
" clip-path="url(#p0b1e2a64d9)" style="fill: #ed7d31"/>
   </g>
   <g id="patch_15">
    <path d="M 52.944136 129.647698 
L 77.626159 129.647698 
L 77.626159 129.647698 
L 52.944136 129.647698 
z
" clip-path="url(#p0b1e2a64d9)" style="fill: #a5a5a5"/>
   </g>
   <g id="patch_16">
    <path d="M 102.308182 138.046571 
L 126.990204 138.046571 
L 126.990204 104.95448 
L 102.308182 104.95448 
z
" clip-path="url(#p0b1e2a64d9)" style="fill: #a5a5a5"/>
   </g>
   <g id="patch_17">
    <path d="M 151.672227 124.759395 
L 176.35425 124.759395 
L 176.35425 92.568129 
L 151.672227 92.568129 
z
" clip-path="url(#p0b1e2a64d9)" style="fill: #a5a5a5"/>
   </g>
   <g id="patch_18">
    <path d="M 201.036273 144.054283 
L 225.718295 144.054283 
L 225.718295 122.454341 
L 201.036273 122.454341 
z
" clip-path="url(#p0b1e2a64d9)" style="fill: #a5a5a5"/>
   </g>
   <g id="patch_19">
    <path d="M 250.400318 136.374083 
L 275.082341 136.374083 
L 275.082341 116.175057 
L 250.400318 116.175057 
z
" clip-path="url(#p0b1e2a64d9)" style="fill: #a5a5a5"/>
   </g>
   <g id="patch_20">
    <path d="M 299.764363 138.073066 
L 324.446386 138.073066 
L 324.446386 61.63537 
L 299.764363 61.63537 
z
" clip-path="url(#p0b1e2a64d9)" style="fill: #a5a5a5"/>
   </g>
   <g id="matplotlib.axis_1">
    <g id="xtick_1">
     <g id="line2d_1">
      <defs>
       <path id="m4524c4270b" d="M 0 0 
L 0 3.5 
" style="stroke: #000000; stroke-width: 0.8"/>
      </defs>
      <g>
       <use xlink:href="#m4524c4270b" x="65.285148" y="281.542779" style="stroke: #000000; stroke-width: 0.8"/>
      </g>
     </g>
     <g id="text_1">
      <!-- phase_b -->
      <g transform="translate(48.614452 315.885719) rotate(-30) scale(0.1 -0.1)">
       <defs>
        <path id="DejaVuSans-70" d="M 1159 525 
L 1159 -1331 
L 581 -1331 
L 581 3500 
L 1159 3500 
L 1159 2969 
Q 1341 3281 1617 3432 
Q 1894 3584 2278 3584 
Q 2916 3584 3314 3078 
Q 3713 2572 3713 1747 
Q 3713 922 3314 415 
Q 2916 -91 2278 -91 
Q 1894 -91 1617 61 
Q 1341 213 1159 525 
z
M 3116 1747 
Q 3116 2381 2855 2742 
Q 2594 3103 2138 3103 
Q 1681 3103 1420 2742 
Q 1159 2381 1159 1747 
Q 1159 1113 1420 752 
Q 1681 391 2138 391 
Q 2594 391 2855 752 
Q 3116 1113 3116 1747 
z
" transform="scale(0.015625)"/>
        <path id="DejaVuSans-68" d="M 3513 2113 
L 3513 0 
L 2938 0 
L 2938 2094 
Q 2938 2591 2744 2837 
Q 2550 3084 2163 3084 
Q 1697 3084 1428 2787 
Q 1159 2491 1159 1978 
L 1159 0 
L 581 0 
L 581 4863 
L 1159 4863 
L 1159 2956 
Q 1366 3272 1645 3428 
Q 1925 3584 2291 3584 
Q 2894 3584 3203 3211 
Q 3513 2838 3513 2113 
z
" transform="scale(0.015625)"/>
        <path id="DejaVuSans-61" d="M 2194 1759 
Q 1497 1759 1228 1600 
Q 959 1441 959 1056 
Q 959 750 1161 570 
Q 1363 391 1709 391 
Q 2188 391 2477 730 
Q 2766 1069 2766 1631 
L 2766 1759 
L 2194 1759 
z
M 3341 1997 
L 3341 0 
L 2766 0 
L 2766 531 
Q 2569 213 2275 61 
Q 1981 -91 1556 -91 
Q 1019 -91 701 211 
Q 384 513 384 1019 
Q 384 1609 779 1909 
Q 1175 2209 1959 2209 
L 2766 2209 
L 2766 2266 
Q 2766 2663 2505 2880 
Q 2244 3097 1772 3097 
Q 1472 3097 1187 3025 
Q 903 2953 641 2809 
L 641 3341 
Q 956 3463 1253 3523 
Q 1550 3584 1831 3584 
Q 2591 3584 2966 3190 
Q 3341 2797 3341 1997 
z
" transform="scale(0.015625)"/>
        <path id="DejaVuSans-73" d="M 2834 3397 
L 2834 2853 
Q 2591 2978 2328 3040 
Q 2066 3103 1784 3103 
Q 1356 3103 1142 2972 
Q 928 2841 928 2578 
Q 928 2378 1081 2264 
Q 1234 2150 1697 2047 
L 1894 2003 
Q 2506 1872 2764 1633 
Q 3022 1394 3022 966 
Q 3022 478 2636 193 
Q 2250 -91 1575 -91 
Q 1294 -91 989 -36 
Q 684 19 347 128 
L 347 722 
Q 666 556 975 473 
Q 1284 391 1588 391 
Q 1994 391 2212 530 
Q 2431 669 2431 922 
Q 2431 1156 2273 1281 
Q 2116 1406 1581 1522 
L 1381 1569 
Q 847 1681 609 1914 
Q 372 2147 372 2553 
Q 372 3047 722 3315 
Q 1072 3584 1716 3584 
Q 2034 3584 2315 3537 
Q 2597 3491 2834 3397 
z
" transform="scale(0.015625)"/>
        <path id="DejaVuSans-65" d="M 3597 1894 
L 3597 1613 
L 953 1613 
Q 991 1019 1311 708 
Q 1631 397 2203 397 
Q 2534 397 2845 478 
Q 3156 559 3463 722 
L 3463 178 
Q 3153 47 2828 -22 
Q 2503 -91 2169 -91 
Q 1331 -91 842 396 
Q 353 884 353 1716 
Q 353 2575 817 3079 
Q 1281 3584 2069 3584 
Q 2775 3584 3186 3129 
Q 3597 2675 3597 1894 
z
M 3022 2063 
Q 3016 2534 2758 2815 
Q 2500 3097 2075 3097 
Q 1594 3097 1305 2825 
Q 1016 2553 972 2059 
L 3022 2063 
z
" transform="scale(0.015625)"/>
        <path id="DejaVuSans-5f" d="M 3263 -1063 
L 3263 -1509 
L -63 -1509 
L -63 -1063 
L 3263 -1063 
z
" transform="scale(0.015625)"/>
        <path id="DejaVuSans-62" d="M 3116 1747 
Q 3116 2381 2855 2742 
Q 2594 3103 2138 3103 
Q 1681 3103 1420 2742 
Q 1159 2381 1159 1747 
Q 1159 1113 1420 752 
Q 1681 391 2138 391 
Q 2594 391 2855 752 
Q 3116 1113 3116 1747 
z
M 1159 2969 
Q 1341 3281 1617 3432 
Q 1894 3584 2278 3584 
Q 2916 3584 3314 3078 
Q 3713 2572 3713 1747 
Q 3713 922 3314 415 
Q 2916 -91 2278 -91 
Q 1894 -91 1617 61 
Q 1341 213 1159 525 
L 1159 0 
L 581 0 
L 581 4863 
L 1159 4863 
L 1159 2969 
z
" transform="scale(0.015625)"/>
       </defs>
       <use xlink:href="#DejaVuSans-70"/>
       <use xlink:href="#DejaVuSans-68" transform="translate(63.476562 0)"/>
       <use xlink:href="#DejaVuSans-61" transform="translate(126.855469 0)"/>
       <use xlink:href="#DejaVuSans-73" transform="translate(188.134766 0)"/>
       <use xlink:href="#DejaVuSans-65" transform="translate(240.234375 0)"/>
       <use xlink:href="#DejaVuSans-5f" transform="translate(301.757812 0)"/>
       <use xlink:href="#DejaVuSans-62" transform="translate(351.757812 0)"/>
      </g>
     </g>
    </g>
    <g id="xtick_2">
     <g id="line2d_2">
      <g>
       <use xlink:href="#m4524c4270b" x="114.649193" y="281.542779" style="stroke: #000000; stroke-width: 0.8"/>
      </g>
     </g>
     <g id="text_2">
      <!-- phase_b+alns -->
      <g transform="translate(85.493523 330.302125) rotate(-30) scale(0.1 -0.1)">
       <defs>
        <path id="DejaVuSans-2b" d="M 2944 4013 
L 2944 2272 
L 4684 2272 
L 4684 1741 
L 2944 1741 
L 2944 0 
L 2419 0 
L 2419 1741 
L 678 1741 
L 678 2272 
L 2419 2272 
L 2419 4013 
L 2944 4013 
z
" transform="scale(0.015625)"/>
        <path id="DejaVuSans-6c" d="M 603 4863 
L 1178 4863 
L 1178 0 
L 603 0 
L 603 4863 
z
" transform="scale(0.015625)"/>
        <path id="DejaVuSans-6e" d="M 3513 2113 
L 3513 0 
L 2938 0 
L 2938 2094 
Q 2938 2591 2744 2837 
Q 2550 3084 2163 3084 
Q 1697 3084 1428 2787 
Q 1159 2491 1159 1978 
L 1159 0 
L 581 0 
L 581 3500 
L 1159 3500 
L 1159 2956 
Q 1366 3272 1645 3428 
Q 1925 3584 2291 3584 
Q 2894 3584 3203 3211 
Q 3513 2838 3513 2113 
z
" transform="scale(0.015625)"/>
       </defs>
       <use xlink:href="#DejaVuSans-70"/>
       <use xlink:href="#DejaVuSans-68" transform="translate(63.476562 0)"/>
       <use xlink:href="#DejaVuSans-61" transform="translate(126.855469 0)"/>
       <use xlink:href="#DejaVuSans-73" transform="translate(188.134766 0)"/>
       <use xlink:href="#DejaVuSans-65" transform="translate(240.234375 0)"/>
       <use xlink:href="#DejaVuSans-5f" transform="translate(301.757812 0)"/>
       <use xlink:href="#DejaVuSans-62" transform="translate(351.757812 0)"/>
       <use xlink:href="#DejaVuSans-2b" transform="translate(415.234375 0)"/>
       <use xlink:href="#DejaVuSans-61" transform="translate(499.023438 0)"/>
       <use xlink:href="#DejaVuSans-6c" transform="translate(560.302734 0)"/>
       <use xlink:href="#DejaVuSans-6e" transform="translate(588.085938 0)"/>
       <use xlink:href="#DejaVuSans-73" transform="translate(651.464844 0)"/>
      </g>
     </g>
    </g>
    <g id="xtick_3">
     <g id="line2d_3">
      <g>
       <use xlink:href="#m4524c4270b" x="164.013239" y="281.542779" style="stroke: #000000; stroke-width: 0.8"/>
      </g>
     </g>
     <g id="text_3">
      <!-- phase_b+lagrangian -->
      <g transform="translate(120.581004 346.787281) rotate(-30) scale(0.1 -0.1)">
       <defs>
        <path id="DejaVuSans-67" d="M 2906 1791 
Q 2906 2416 2648 2759 
Q 2391 3103 1925 3103 
Q 1463 3103 1205 2759 
Q 947 2416 947 1791 
Q 947 1169 1205 825 
Q 1463 481 1925 481 
Q 2391 481 2648 825 
Q 2906 1169 2906 1791 
z
M 3481 434 
Q 3481 -459 3084 -895 
Q 2688 -1331 1869 -1331 
Q 1566 -1331 1297 -1286 
Q 1028 -1241 775 -1147 
L 775 -588 
Q 1028 -725 1275 -790 
Q 1522 -856 1778 -856 
Q 2344 -856 2625 -561 
Q 2906 -266 2906 331 
L 2906 616 
Q 2728 306 2450 153 
Q 2172 0 1784 0 
Q 1141 0 747 490 
Q 353 981 353 1791 
Q 353 2603 747 3093 
Q 1141 3584 1784 3584 
Q 2172 3584 2450 3431 
Q 2728 3278 2906 2969 
L 2906 3500 
L 3481 3500 
L 3481 434 
z
" transform="scale(0.015625)"/>
        <path id="DejaVuSans-72" d="M 2631 2963 
Q 2534 3019 2420 3045 
Q 2306 3072 2169 3072 
Q 1681 3072 1420 2755 
Q 1159 2438 1159 1844 
L 1159 0 
L 581 0 
L 581 3500 
L 1159 3500 
L 1159 2956 
Q 1341 3275 1631 3429 
Q 1922 3584 2338 3584 
Q 2397 3584 2469 3576 
Q 2541 3569 2628 3553 
L 2631 2963 
z
" transform="scale(0.015625)"/>
        <path id="DejaVuSans-69" d="M 603 3500 
L 1178 3500 
L 1178 0 
L 603 0 
L 603 3500 
z
M 603 4863 
L 1178 4863 
L 1178 4134 
L 603 4134 
L 603 4863 
z
" transform="scale(0.015625)"/>
       </defs>
       <use xlink:href="#DejaVuSans-70"/>
       <use xlink:href="#DejaVuSans-68" transform="translate(63.476562 0)"/>
       <use xlink:href="#DejaVuSans-61" transform="translate(126.855469 0)"/>
       <use xlink:href="#DejaVuSans-73" transform="translate(188.134766 0)"/>
       <use xlink:href="#DejaVuSans-65" transform="translate(240.234375 0)"/>
       <use xlink:href="#DejaVuSans-5f" transform="translate(301.757812 0)"/>
       <use xlink:href="#DejaVuSans-62" transform="translate(351.757812 0)"/>
       <use xlink:href="#DejaVuSans-2b" transform="translate(415.234375 0)"/>
       <use xlink:href="#DejaVuSans-6c" transform="translate(499.023438 0)"/>
       <use xlink:href="#DejaVuSans-61" transform="translate(526.806641 0)"/>
       <use xlink:href="#DejaVuSans-67" transform="translate(588.085938 0)"/>
       <use xlink:href="#DejaVuSans-72" transform="translate(651.5625 0)"/>
       <use xlink:href="#DejaVuSans-61" transform="translate(692.675781 0)"/>
       <use xlink:href="#DejaVuSans-6e" transform="translate(753.955078 0)"/>
       <use xlink:href="#DejaVuSans-67" transform="translate(817.333984 0)"/>
       <use xlink:href="#DejaVuSans-69" transform="translate(880.810547 0)"/>
       <use xlink:href="#DejaVuSans-61" transform="translate(908.59375 0)"/>
       <use xlink:href="#DejaVuSans-6e" transform="translate(969.873047 0)"/>
      </g>
     </g>
    </g>
    <g id="xtick_4">
     <g id="line2d_4">
      <g>
       <use xlink:href="#m4524c4270b" x="213.377284" y="281.542779" style="stroke: #000000; stroke-width: 0.8"/>
      </g>
     </g>
     <g id="text_4">
      <!-- phase_b+lns -->
      <g transform="translate(186.87517 327.238063) rotate(-30) scale(0.1 -0.1)">
       <use xlink:href="#DejaVuSans-70"/>
       <use xlink:href="#DejaVuSans-68" transform="translate(63.476562 0)"/>
       <use xlink:href="#DejaVuSans-61" transform="translate(126.855469 0)"/>
       <use xlink:href="#DejaVuSans-73" transform="translate(188.134766 0)"/>
       <use xlink:href="#DejaVuSans-65" transform="translate(240.234375 0)"/>
       <use xlink:href="#DejaVuSans-5f" transform="translate(301.757812 0)"/>
       <use xlink:href="#DejaVuSans-62" transform="translate(351.757812 0)"/>
       <use xlink:href="#DejaVuSans-2b" transform="translate(415.234375 0)"/>
       <use xlink:href="#DejaVuSans-6c" transform="translate(499.023438 0)"/>
       <use xlink:href="#DejaVuSans-6e" transform="translate(526.806641 0)"/>
       <use xlink:href="#DejaVuSans-73" transform="translate(590.185547 0)"/>
      </g>
     </g>
    </g>
    <g id="xtick_5">
     <g id="line2d_5">
      <g>
       <use xlink:href="#m4524c4270b" x="262.741329" y="281.542779" style="stroke: #000000; stroke-width: 0.8"/>
      </g>
     </g>
     <g id="text_5">
      <!-- phase_b+sa -->
      <g transform="translate(237.53284 325.744313) rotate(-30) scale(0.1 -0.1)">
       <use xlink:href="#DejaVuSans-70"/>
       <use xlink:href="#DejaVuSans-68" transform="translate(63.476562 0)"/>
       <use xlink:href="#DejaVuSans-61" transform="translate(126.855469 0)"/>
       <use xlink:href="#DejaVuSans-73" transform="translate(188.134766 0)"/>
       <use xlink:href="#DejaVuSans-65" transform="translate(240.234375 0)"/>
       <use xlink:href="#DejaVuSans-5f" transform="translate(301.757812 0)"/>
       <use xlink:href="#DejaVuSans-62" transform="translate(351.757812 0)"/>
       <use xlink:href="#DejaVuSans-2b" transform="translate(415.234375 0)"/>
       <use xlink:href="#DejaVuSans-73" transform="translate(499.023438 0)"/>
       <use xlink:href="#DejaVuSans-61" transform="translate(551.123047 0)"/>
      </g>
     </g>
    </g>
    <g id="xtick_6">
     <g id="line2d_6">
      <g>
       <use xlink:href="#m4524c4270b" x="312.105375" y="281.542779" style="stroke: #000000; stroke-width: 0.8"/>
      </g>
     </g>
     <g id="text_6">
      <!-- phase_b+vns -->
      <g transform="translate(284.24333 328.808375) rotate(-30) scale(0.1 -0.1)">
       <defs>
        <path id="DejaVuSans-76" d="M 191 3500 
L 800 3500 
L 1894 563 
L 2988 3500 
L 3597 3500 
L 2284 0 
L 1503 0 
L 191 3500 
z
" transform="scale(0.015625)"/>
       </defs>
       <use xlink:href="#DejaVuSans-70"/>
       <use xlink:href="#DejaVuSans-68" transform="translate(63.476562 0)"/>
       <use xlink:href="#DejaVuSans-61" transform="translate(126.855469 0)"/>
       <use xlink:href="#DejaVuSans-73" transform="translate(188.134766 0)"/>
       <use xlink:href="#DejaVuSans-65" transform="translate(240.234375 0)"/>
       <use xlink:href="#DejaVuSans-5f" transform="translate(301.757812 0)"/>
       <use xlink:href="#DejaVuSans-62" transform="translate(351.757812 0)"/>
       <use xlink:href="#DejaVuSans-2b" transform="translate(415.234375 0)"/>
       <use xlink:href="#DejaVuSans-76" transform="translate(499.023438 0)"/>
       <use xlink:href="#DejaVuSans-6e" transform="translate(558.203125 0)"/>
       <use xlink:href="#DejaVuSans-73" transform="translate(621.582031 0)"/>
      </g>
     </g>
    </g>
   </g>
   <g id="matplotlib.axis_2">
    <g id="ytick_1">
     <g id="line2d_7">
      <defs>
       <path id="ma90e4950d5" d="M 0 0 
L -3.5 0 
" style="stroke: #000000; stroke-width: 0.8"/>
      </defs>
      <g>
       <use xlink:href="#ma90e4950d5" x="40.603125" y="281.542779" style="stroke: #000000; stroke-width: 0.8"/>
      </g>
     </g>
     <g id="text_7">
      <!-- 0 -->
      <g transform="translate(27.240625 285.341998) scale(0.1 -0.1)">
       <defs>
        <path id="DejaVuSans-30" d="M 2034 4250 
Q 1547 4250 1301 3770 
Q 1056 3291 1056 2328 
Q 1056 1369 1301 889 
Q 1547 409 2034 409 
Q 2525 409 2770 889 
Q 3016 1369 3016 2328 
Q 3016 3291 2770 3770 
Q 2525 4250 2034 4250 
z
M 2034 4750 
Q 2819 4750 3233 4129 
Q 3647 3509 3647 2328 
Q 3647 1150 3233 529 
Q 2819 -91 2034 -91 
Q 1250 -91 836 529 
Q 422 1150 422 2328 
Q 422 3509 836 4129 
Q 1250 4750 2034 4750 
z
" transform="scale(0.015625)"/>
       </defs>
       <use xlink:href="#DejaVuSans-30"/>
      </g>
     </g>
    </g>
    <g id="ytick_2">
     <g id="line2d_8">
      <g>
       <use xlink:href="#ma90e4950d5" x="40.603125" y="241.800476" style="stroke: #000000; stroke-width: 0.8"/>
      </g>
     </g>
     <g id="text_8">
      <!-- 10 -->
      <g transform="translate(20.878125 245.599695) scale(0.1 -0.1)">
       <defs>
        <path id="DejaVuSans-31" d="M 794 531 
L 1825 531 
L 1825 4091 
L 703 3866 
L 703 4441 
L 1819 4666 
L 2450 4666 
L 2450 531 
L 3481 531 
L 3481 0 
L 794 0 
L 794 531 
z
" transform="scale(0.015625)"/>
       </defs>
       <use xlink:href="#DejaVuSans-31"/>
       <use xlink:href="#DejaVuSans-30" transform="translate(63.623047 0)"/>
      </g>
     </g>
    </g>
    <g id="ytick_3">
     <g id="line2d_9">
      <g>
       <use xlink:href="#ma90e4950d5" x="40.603125" y="202.058173" style="stroke: #000000; stroke-width: 0.8"/>
      </g>
     </g>
     <g id="text_9">
      <!-- 20 -->
      <g transform="translate(20.878125 205.857392) scale(0.1 -0.1)">
       <defs>
        <path id="DejaVuSans-32" d="M 1228 531 
L 3431 531 
L 3431 0 
L 469 0 
L 469 531 
Q 828 903 1448 1529 
Q 2069 2156 2228 2338 
Q 2531 2678 2651 2914 
Q 2772 3150 2772 3378 
Q 2772 3750 2511 3984 
Q 2250 4219 1831 4219 
Q 1534 4219 1204 4116 
Q 875 4013 500 3803 
L 500 4441 
Q 881 4594 1212 4672 
Q 1544 4750 1819 4750 
Q 2544 4750 2975 4387 
Q 3406 4025 3406 3419 
Q 3406 3131 3298 2873 
Q 3191 2616 2906 2266 
Q 2828 2175 2409 1742 
Q 1991 1309 1228 531 
z
" transform="scale(0.015625)"/>
       </defs>
       <use xlink:href="#DejaVuSans-32"/>
       <use xlink:href="#DejaVuSans-30" transform="translate(63.623047 0)"/>
      </g>
     </g>
    </g>
    <g id="ytick_4">
     <g id="line2d_10">
      <g>
       <use xlink:href="#ma90e4950d5" x="40.603125" y="162.315871" style="stroke: #000000; stroke-width: 0.8"/>
      </g>
     </g>
     <g id="text_10">
      <!-- 30 -->
      <g transform="translate(20.878125 166.115089) scale(0.1 -0.1)">
       <defs>
        <path id="DejaVuSans-33" d="M 2597 2516 
Q 3050 2419 3304 2112 
Q 3559 1806 3559 1356 
Q 3559 666 3084 287 
Q 2609 -91 1734 -91 
Q 1441 -91 1130 -33 
Q 819 25 488 141 
L 488 750 
Q 750 597 1062 519 
Q 1375 441 1716 441 
Q 2309 441 2620 675 
Q 2931 909 2931 1356 
Q 2931 1769 2642 2001 
Q 2353 2234 1838 2234 
L 1294 2234 
L 1294 2753 
L 1863 2753 
Q 2328 2753 2575 2939 
Q 2822 3125 2822 3475 
Q 2822 3834 2567 4026 
Q 2313 4219 1838 4219 
Q 1578 4219 1281 4162 
Q 984 4106 628 3988 
L 628 4550 
Q 988 4650 1302 4700 
Q 1616 4750 1894 4750 
Q 2613 4750 3031 4423 
Q 3450 4097 3450 3541 
Q 3450 3153 3228 2886 
Q 3006 2619 2597 2516 
z
" transform="scale(0.015625)"/>
       </defs>
       <use xlink:href="#DejaVuSans-33"/>
       <use xlink:href="#DejaVuSans-30" transform="translate(63.623047 0)"/>
      </g>
     </g>
    </g>
    <g id="ytick_5">
     <g id="line2d_11">
      <g>
       <use xlink:href="#ma90e4950d5" x="40.603125" y="122.573568" style="stroke: #000000; stroke-width: 0.8"/>
      </g>
     </g>
     <g id="text_11">
      <!-- 40 -->
      <g transform="translate(20.878125 126.372787) scale(0.1 -0.1)">
       <defs>
        <path id="DejaVuSans-34" d="M 2419 4116 
L 825 1625 
L 2419 1625 
L 2419 4116 
z
M 2253 4666 
L 3047 4666 
L 3047 1625 
L 3713 1625 
L 3713 1100 
L 3047 1100 
L 3047 0 
L 2419 0 
L 2419 1100 
L 313 1100 
L 313 1709 
L 2253 4666 
z
" transform="scale(0.015625)"/>
       </defs>
       <use xlink:href="#DejaVuSans-34"/>
       <use xlink:href="#DejaVuSans-30" transform="translate(63.623047 0)"/>
      </g>
     </g>
    </g>
    <g id="ytick_6">
     <g id="line2d_12">
      <g>
       <use xlink:href="#ma90e4950d5" x="40.603125" y="82.831265" style="stroke: #000000; stroke-width: 0.8"/>
      </g>
     </g>
     <g id="text_12">
      <!-- 50 -->
      <g transform="translate(20.878125 86.630484) scale(0.1 -0.1)">
       <defs>
        <path id="DejaVuSans-35" d="M 691 4666 
L 3169 4666 
L 3169 4134 
L 1269 4134 
L 1269 2991 
Q 1406 3038 1543 3061 
Q 1681 3084 1819 3084 
Q 2600 3084 3056 2656 
Q 3513 2228 3513 1497 
Q 3513 744 3044 326 
Q 2575 -91 1722 -91 
Q 1428 -91 1123 -41 
Q 819 9 494 109 
L 494 744 
Q 775 591 1075 516 
Q 1375 441 1709 441 
Q 2250 441 2565 725 
Q 2881 1009 2881 1497 
Q 2881 1984 2565 2268 
Q 2250 2553 1709 2553 
Q 1456 2553 1204 2497 
Q 953 2441 691 2322 
L 691 4666 
z
" transform="scale(0.015625)"/>
       </defs>
       <use xlink:href="#DejaVuSans-35"/>
       <use xlink:href="#DejaVuSans-30" transform="translate(63.623047 0)"/>
      </g>
     </g>
    </g>
    <g id="text_13">
     <!-- Tempo medio (s) -->
     <g transform="translate(14.798438 207.729671) rotate(-90) scale(0.1 -0.1)">
      <defs>
       <path id="DejaVuSans-54" d="M -19 4666 
L 3928 4666 
L 3928 4134 
L 2272 4134 
L 2272 0 
L 1638 0 
L 1638 4134 
L -19 4134 
L -19 4666 
z
" transform="scale(0.015625)"/>
       <path id="DejaVuSans-6d" d="M 3328 2828 
Q 3544 3216 3844 3400 
Q 4144 3584 4550 3584 
Q 5097 3584 5394 3201 
Q 5691 2819 5691 2113 
L 5691 0 
L 5113 0 
L 5113 2094 
Q 5113 2597 4934 2840 
Q 4756 3084 4391 3084 
Q 3944 3084 3684 2787 
Q 3425 2491 3425 1978 
L 3425 0 
L 2847 0 
L 2847 2094 
Q 2847 2600 2669 2842 
Q 2491 3084 2119 3084 
Q 1678 3084 1418 2786 
Q 1159 2488 1159 1978 
L 1159 0 
L 581 0 
L 581 3500 
L 1159 3500 
L 1159 2956 
Q 1356 3278 1631 3431 
Q 1906 3584 2284 3584 
Q 2666 3584 2933 3390 
Q 3200 3197 3328 2828 
z
" transform="scale(0.015625)"/>
       <path id="DejaVuSans-6f" d="M 1959 3097 
Q 1497 3097 1228 2736 
Q 959 2375 959 1747 
Q 959 1119 1226 758 
Q 1494 397 1959 397 
Q 2419 397 2687 759 
Q 2956 1122 2956 1747 
Q 2956 2369 2687 2733 
Q 2419 3097 1959 3097 
z
M 1959 3584 
Q 2709 3584 3137 3096 
Q 3566 2609 3566 1747 
Q 3566 888 3137 398 
Q 2709 -91 1959 -91 
Q 1206 -91 779 398 
Q 353 888 353 1747 
Q 353 2609 779 3096 
Q 1206 3584 1959 3584 
z
" transform="scale(0.015625)"/>
       <path id="DejaVuSans-20" transform="scale(0.015625)"/>
       <path id="DejaVuSans-64" d="M 2906 2969 
L 2906 4863 
L 3481 4863 
L 3481 0 
L 2906 0 
L 2906 525 
Q 2725 213 2448 61 
Q 2172 -91 1784 -91 
Q 1150 -91 751 415 
Q 353 922 353 1747 
Q 353 2572 751 3078 
Q 1150 3584 1784 3584 
Q 2172 3584 2448 3432 
Q 2725 3281 2906 2969 
z
M 947 1747 
Q 947 1113 1208 752 
Q 1469 391 1925 391 
Q 2381 391 2643 752 
Q 2906 1113 2906 1747 
Q 2906 2381 2643 2742 
Q 2381 3103 1925 3103 
Q 1469 3103 1208 2742 
Q 947 2381 947 1747 
z
" transform="scale(0.015625)"/>
       <path id="DejaVuSans-28" d="M 1984 4856 
Q 1566 4138 1362 3434 
Q 1159 2731 1159 2009 
Q 1159 1288 1364 580 
Q 1569 -128 1984 -844 
L 1484 -844 
Q 1016 -109 783 600 
Q 550 1309 550 2009 
Q 550 2706 781 3412 
Q 1013 4119 1484 4856 
L 1984 4856 
z
" transform="scale(0.015625)"/>
       <path id="DejaVuSans-29" d="M 513 4856 
L 1013 4856 
Q 1481 4119 1714 3412 
Q 1947 2706 1947 2009 
Q 1947 1309 1714 600 
Q 1481 -109 1013 -844 
L 513 -844 
Q 928 -128 1133 580 
Q 1338 1288 1338 2009 
Q 1338 2731 1133 3434 
Q 928 4138 513 4856 
z
" transform="scale(0.015625)"/>
      </defs>
      <use xlink:href="#DejaVuSans-54"/>
      <use xlink:href="#DejaVuSans-65" transform="translate(44.083984 0)"/>
      <use xlink:href="#DejaVuSans-6d" transform="translate(105.607422 0)"/>
      <use xlink:href="#DejaVuSans-70" transform="translate(203.019531 0)"/>
      <use xlink:href="#DejaVuSans-6f" transform="translate(266.496094 0)"/>
      <use xlink:href="#DejaVuSans-20" transform="translate(327.677734 0)"/>
      <use xlink:href="#DejaVuSans-6d" transform="translate(359.464844 0)"/>
      <use xlink:href="#DejaVuSans-65" transform="translate(456.876953 0)"/>
      <use xlink:href="#DejaVuSans-64" transform="translate(518.400391 0)"/>
      <use xlink:href="#DejaVuSans-69" transform="translate(581.876953 0)"/>
      <use xlink:href="#DejaVuSans-6f" transform="translate(609.660156 0)"/>
      <use xlink:href="#DejaVuSans-20" transform="translate(670.841797 0)"/>
      <use xlink:href="#DejaVuSans-28" transform="translate(702.628906 0)"/>
      <use xlink:href="#DejaVuSans-73" transform="translate(741.642578 0)"/>
      <use xlink:href="#DejaVuSans-29" transform="translate(793.742188 0)"/>
     </g>
    </g>
   </g>
   <g id="patch_21">
    <path d="M 40.603125 281.542779 
L 40.603125 50.64 
" style="fill: none; stroke: #000000; stroke-width: 0.8; stroke-linejoin: miter; stroke-linecap: square"/>
   </g>
   <g id="patch_22">
    <path d="M 336.787397 281.542779 
L 336.787397 50.64 
" style="fill: none; stroke: #000000; stroke-width: 0.8; stroke-linejoin: miter; stroke-linecap: square"/>
   </g>
   <g id="patch_23">
    <path d="M 40.603125 281.542779 
L 336.787397 281.542779 
" style="fill: none; stroke: #000000; stroke-width: 0.8; stroke-linejoin: miter; stroke-linecap: square"/>
   </g>
   <g id="patch_24">
    <path d="M 40.603125 50.64 
L 336.787397 50.64 
" style="fill: none; stroke: #000000; stroke-width: 0.8; stroke-linejoin: miter; stroke-linecap: square"/>
   </g>
   <g id="text_14">
    <!-- liceo_piccolo -->
    <g transform="translate(150.615886 44.64) scale(0.12 -0.12)">
     <defs>
      <path id="DejaVuSans-63" d="M 3122 3366 
L 3122 2828 
Q 2878 2963 2633 3030 
Q 2388 3097 2138 3097 
Q 1578 3097 1268 2742 
Q 959 2388 959 1747 
Q 959 1106 1268 751 
Q 1578 397 2138 397 
Q 2388 397 2633 464 
Q 2878 531 3122 666 
L 3122 134 
Q 2881 22 2623 -34 
Q 2366 -91 2075 -91 
Q 1284 -91 818 406 
Q 353 903 353 1747 
Q 353 2603 823 3093 
Q 1294 3584 2113 3584 
Q 2378 3584 2631 3529 
Q 2884 3475 3122 3366 
z
" transform="scale(0.015625)"/>
     </defs>
     <use xlink:href="#DejaVuSans-6c"/>
     <use xlink:href="#DejaVuSans-69" transform="translate(27.783203 0)"/>
     <use xlink:href="#DejaVuSans-63" transform="translate(55.566406 0)"/>
     <use xlink:href="#DejaVuSans-65" transform="translate(110.546875 0)"/>
     <use xlink:href="#DejaVuSans-6f" transform="translate(172.070312 0)"/>
     <use xlink:href="#DejaVuSans-5f" transform="translate(233.251953 0)"/>
     <use xlink:href="#DejaVuSans-70" transform="translate(283.251953 0)"/>
     <use xlink:href="#DejaVuSans-69" transform="translate(346.728516 0)"/>
     <use xlink:href="#DejaVuSans-63" transform="translate(374.511719 0)"/>
     <use xlink:href="#DejaVuSans-63" transform="translate(429.492188 0)"/>
     <use xlink:href="#DejaVuSans-6f" transform="translate(484.472656 0)"/>
     <use xlink:href="#DejaVuSans-6c" transform="translate(545.654297 0)"/>
     <use xlink:href="#DejaVuSans-6f" transform="translate(573.4375 0)"/>
    </g>
   </g>
   <g id="legend_1">
    <g id="patch_25">
     <path d="M 47.603125 103.50875 
L 130.048438 103.50875 
Q 132.048438 103.50875 132.048438 101.50875 
L 132.048438 57.64 
Q 132.048438 55.64 130.048438 55.64 
L 47.603125 55.64 
Q 45.603125 55.64 45.603125 57.64 
L 45.603125 101.50875 
Q 45.603125 103.50875 47.603125 103.50875 
z
" style="fill: #ffffff; opacity: 0.8; stroke: #cccccc; stroke-linejoin: miter"/>
    </g>
    <g id="patch_26">
     <path d="M 49.603125 67.238437 
L 69.603125 67.238437 
L 69.603125 60.238437 
L 49.603125 60.238437 
z
" style="fill: #5b9bd5"/>
    </g>
    <g id="text_15">
     <!-- t_phase_a -->
     <g transform="translate(77.603125 67.238437) scale(0.1 -0.1)">
      <defs>
       <path id="DejaVuSans-74" d="M 1172 4494 
L 1172 3500 
L 2356 3500 
L 2356 3053 
L 1172 3053 
L 1172 1153 
Q 1172 725 1289 603 
Q 1406 481 1766 481 
L 2356 481 
L 2356 0 
L 1766 0 
Q 1100 0 847 248 
Q 594 497 594 1153 
L 594 3053 
L 172 3053 
L 172 3500 
L 594 3500 
L 594 4494 
L 1172 4494 
z
" transform="scale(0.015625)"/>
      </defs>
      <use xlink:href="#DejaVuSans-74"/>
      <use xlink:href="#DejaVuSans-5f" transform="translate(39.208984 0)"/>
      <use xlink:href="#DejaVuSans-70" transform="translate(89.208984 0)"/>
      <use xlink:href="#DejaVuSans-68" transform="translate(152.685547 0)"/>
      <use xlink:href="#DejaVuSans-61" transform="translate(216.064453 0)"/>
      <use xlink:href="#DejaVuSans-73" transform="translate(277.34375 0)"/>
      <use xlink:href="#DejaVuSans-65" transform="translate(329.443359 0)"/>
      <use xlink:href="#DejaVuSans-5f" transform="translate(390.966797 0)"/>
      <use xlink:href="#DejaVuSans-61" transform="translate(440.966797 0)"/>
     </g>
    </g>
    <g id="patch_27">
     <path d="M 49.603125 82.194687 
L 69.603125 82.194687 
L 69.603125 75.194687 
L 49.603125 75.194687 
z
" style="fill: #ed7d31"/>
    </g>
    <g id="text_16">
     <!-- t_phase_b -->
     <g transform="translate(77.603125 82.194687) scale(0.1 -0.1)">
      <use xlink:href="#DejaVuSans-74"/>
      <use xlink:href="#DejaVuSans-5f" transform="translate(39.208984 0)"/>
      <use xlink:href="#DejaVuSans-70" transform="translate(89.208984 0)"/>
      <use xlink:href="#DejaVuSans-68" transform="translate(152.685547 0)"/>
      <use xlink:href="#DejaVuSans-61" transform="translate(216.064453 0)"/>
      <use xlink:href="#DejaVuSans-73" transform="translate(277.34375 0)"/>
      <use xlink:href="#DejaVuSans-65" transform="translate(329.443359 0)"/>
      <use xlink:href="#DejaVuSans-5f" transform="translate(390.966797 0)"/>
      <use xlink:href="#DejaVuSans-62" transform="translate(440.966797 0)"/>
     </g>
    </g>
    <g id="patch_28">
     <path d="M 49.603125 97.150937 
L 69.603125 97.150937 
L 69.603125 90.150937 
L 49.603125 90.150937 
z
" style="fill: #a5a5a5"/>
    </g>
    <g id="text_17">
     <!-- t_post -->
     <g transform="translate(77.603125 97.150937) scale(0.1 -0.1)">
      <use xlink:href="#DejaVuSans-74"/>
      <use xlink:href="#DejaVuSans-5f" transform="translate(39.208984 0)"/>
      <use xlink:href="#DejaVuSans-70" transform="translate(89.208984 0)"/>
      <use xlink:href="#DejaVuSans-6f" transform="translate(152.685547 0)"/>
      <use xlink:href="#DejaVuSans-73" transform="translate(213.867188 0)"/>
      <use xlink:href="#DejaVuSans-74" transform="translate(265.966797 0)"/>
     </g>
    </g>
   </g>
  </g>
  <g id="text_18">
   <!-- Breakdown tempo: Phase A / Phase B / post-pass -->
   <g transform="translate(28.954375 16.318125) scale(0.12 -0.12)">
    <defs>
     <path id="DejaVuSans-42" d="M 1259 2228 
L 1259 519 
L 2272 519 
Q 2781 519 3026 730 
Q 3272 941 3272 1375 
Q 3272 1813 3026 2020 
Q 2781 2228 2272 2228 
L 1259 2228 
z
M 1259 4147 
L 1259 2741 
L 2194 2741 
Q 2656 2741 2882 2914 
Q 3109 3088 3109 3444 
Q 3109 3797 2882 3972 
Q 2656 4147 2194 4147 
L 1259 4147 
z
M 628 4666 
L 2241 4666 
Q 2963 4666 3353 4366 
Q 3744 4066 3744 3513 
Q 3744 3084 3544 2831 
Q 3344 2578 2956 2516 
Q 3422 2416 3680 2098 
Q 3938 1781 3938 1306 
Q 3938 681 3513 340 
Q 3088 0 2303 0 
L 628 0 
L 628 4666 
z
" transform="scale(0.015625)"/>
     <path id="DejaVuSans-6b" d="M 581 4863 
L 1159 4863 
L 1159 1991 
L 2875 3500 
L 3609 3500 
L 1753 1863 
L 3688 0 
L 2938 0 
L 1159 1709 
L 1159 0 
L 581 0 
L 581 4863 
z
" transform="scale(0.015625)"/>
     <path id="DejaVuSans-77" d="M 269 3500 
L 844 3500 
L 1563 769 
L 2278 3500 
L 2956 3500 
L 3675 769 
L 4391 3500 
L 4966 3500 
L 4050 0 
L 3372 0 
L 2619 2869 
L 1863 0 
L 1184 0 
L 269 3500 
z
" transform="scale(0.015625)"/>
     <path id="DejaVuSans-3a" d="M 750 794 
L 1409 794 
L 1409 0 
L 750 0 
L 750 794 
z
M 750 3309 
L 1409 3309 
L 1409 2516 
L 750 2516 
L 750 3309 
z
" transform="scale(0.015625)"/>
     <path id="DejaVuSans-50" d="M 1259 4147 
L 1259 2394 
L 2053 2394 
Q 2494 2394 2734 2622 
Q 2975 2850 2975 3272 
Q 2975 3691 2734 3919 
Q 2494 4147 2053 4147 
L 1259 4147 
z
M 628 4666 
L 2053 4666 
Q 2838 4666 3239 4311 
Q 3641 3956 3641 3272 
Q 3641 2581 3239 2228 
Q 2838 1875 2053 1875 
L 1259 1875 
L 1259 0 
L 628 0 
L 628 4666 
z
" transform="scale(0.015625)"/>
     <path id="DejaVuSans-41" d="M 2188 4044 
L 1331 1722 
L 3047 1722 
L 2188 4044 
z
M 1831 4666 
L 2547 4666 
L 4325 0 
L 3669 0 
L 3244 1197 
L 1141 1197 
L 716 0 
L 50 0 
L 1831 4666 
z
" transform="scale(0.015625)"/>
     <path id="DejaVuSans-2f" d="M 1625 4666 
L 2156 4666 
L 531 -594 
L 0 -594 
L 1625 4666 
z
" transform="scale(0.015625)"/>
     <path id="DejaVuSans-2d" d="M 313 2009 
L 1997 2009 
L 1997 1497 
L 313 1497 
L 313 2009 
z
" transform="scale(0.015625)"/>
    </defs>
    <use xlink:href="#DejaVuSans-42"/>
    <use xlink:href="#DejaVuSans-72" transform="translate(68.603516 0)"/>
    <use xlink:href="#DejaVuSans-65" transform="translate(107.466797 0)"/>
    <use xlink:href="#DejaVuSans-61" transform="translate(168.990234 0)"/>
    <use xlink:href="#DejaVuSans-6b" transform="translate(230.269531 0)"/>
    <use xlink:href="#DejaVuSans-64" transform="translate(288.179688 0)"/>
    <use xlink:href="#DejaVuSans-6f" transform="translate(351.65625 0)"/>
    <use xlink:href="#DejaVuSans-77" transform="translate(412.837891 0)"/>
    <use xlink:href="#DejaVuSans-6e" transform="translate(494.625 0)"/>
    <use xlink:href="#DejaVuSans-20" transform="translate(558.003906 0)"/>
    <use xlink:href="#DejaVuSans-74" transform="translate(589.791016 0)"/>
    <use xlink:href="#DejaVuSans-65" transform="translate(629 0)"/>
    <use xlink:href="#DejaVuSans-6d" transform="translate(690.523438 0)"/>
    <use xlink:href="#DejaVuSans-70" transform="translate(787.935547 0)"/>
    <use xlink:href="#DejaVuSans-6f" transform="translate(851.412109 0)"/>
    <use xlink:href="#DejaVuSans-3a" transform="translate(912.59375 0)"/>
    <use xlink:href="#DejaVuSans-20" transform="translate(946.285156 0)"/>
    <use xlink:href="#DejaVuSans-50" transform="translate(978.072266 0)"/>
    <use xlink:href="#DejaVuSans-68" transform="translate(1038.375 0)"/>
    <use xlink:href="#DejaVuSans-61" transform="translate(1101.753906 0)"/>
    <use xlink:href="#DejaVuSans-73" transform="translate(1163.033203 0)"/>
    <use xlink:href="#DejaVuSans-65" transform="translate(1215.132812 0)"/>
    <use xlink:href="#DejaVuSans-20" transform="translate(1276.65625 0)"/>
    <use xlink:href="#DejaVuSans-41" transform="translate(1308.443359 0)"/>
    <use xlink:href="#DejaVuSans-20" transform="translate(1376.851562 0)"/>
    <use xlink:href="#DejaVuSans-2f" transform="translate(1408.638672 0)"/>
    <use xlink:href="#DejaVuSans-20" transform="translate(1442.330078 0)"/>
    <use xlink:href="#DejaVuSans-50" transform="translate(1474.117188 0)"/>
    <use xlink:href="#DejaVuSans-68" transform="translate(1534.419922 0)"/>
    <use xlink:href="#DejaVuSans-61" transform="translate(1597.798828 0)"/>
    <use xlink:href="#DejaVuSans-73" transform="translate(1659.078125 0)"/>
    <use xlink:href="#DejaVuSans-65" transform="translate(1711.177734 0)"/>
    <use xlink:href="#DejaVuSans-20" transform="translate(1772.701172 0)"/>
    <use xlink:href="#DejaVuSans-42" transform="translate(1804.488281 0)"/>
    <use xlink:href="#DejaVuSans-20" transform="translate(1873.091797 0)"/>
    <use xlink:href="#DejaVuSans-2f" transform="translate(1904.878906 0)"/>
    <use xlink:href="#DejaVuSans-20" transform="translate(1938.570312 0)"/>
    <use xlink:href="#DejaVuSans-70" transform="translate(1970.357422 0)"/>
    <use xlink:href="#DejaVuSans-6f" transform="translate(2033.833984 0)"/>
    <use xlink:href="#DejaVuSans-73" transform="translate(2095.015625 0)"/>
    <use xlink:href="#DejaVuSans-74" transform="translate(2147.115234 0)"/>
    <use xlink:href="#DejaVuSans-2d" transform="translate(2186.324219 0)"/>
    <use xlink:href="#DejaVuSans-70" transform="translate(2222.408203 0)"/>
    <use xlink:href="#DejaVuSans-61" transform="translate(2285.884766 0)"/>
    <use xlink:href="#DejaVuSans-73" transform="translate(2347.164062 0)"/>
    <use xlink:href="#DejaVuSans-73" transform="translate(2399.263672 0)"/>
   </g>
  </g>
 </g>
 <defs>
  <clipPath id="p0b1e2a64d9">
   <rect x="40.603125" y="50.64" width="296.184272" height="230.902779"/>
  </clipPath>
 </defs>
</svg>
